**ABCDEFGHIJKLMNOPQRSTUVWXYZabcdefghijklmnopqrstuvwxyz**************************
**PARASOLID !"#$%&'()*+,-./:;<=>?@[\]^_`{|}~0123456789**************************
**PART1;
MC=unknown;
MC_MODEL=unknown;
MC_ID=unknown;
OS=unknown;
OS_RELEASE=unknown;
FRU=Parasolid 36.0.180;
APPL=Onshape;
SITE=unknown;
USER=unknown;
FORMAT=text;
GUISE=transmit;
KEY=BTGapi::writeModels_.xmt;
FILE=BTGapi::writeModels_.xmt;
DATE=2024-04-24T10:58:12 (UTC);
**PART2;
SCH=SCH_3600180_36001;
USFLD_SIZE=0;
**PART3;
**END_OF_HEADER*****************************************************************
T51 : TRANSMIT FILE created by modeller version 360018023 SCH_3600180_36001_1300
6231 0 12 36 CCCI7 lattice222 0 CCCI4 mesh1006 0 I8 polyline1008 0 CCCCCCCDI5 ow
ner1040 0 CCCI16 boundary_lattice222 0 CCCI13 boundary_mesh1006 0 I17 boundary_p
olyline1008 0 CCCA16 index_map_offset0 0 1 dA9 index_map82 0 A17 node_id_index_m
ap82 0 A20 schema_embedding_map82 0 A5 child12 0 A14 lowest_node_id0 0 1 dA16 me
sh_offset_data206 0 Z1 946 2 3 0 0 0 0 0 0 0 1e3 1e-8 0 4 5 1 0 1 2 6 0 7 8 9 0
 0 10 11 12 0 0 0 0 0 0 0 81 255 2 2 946 13 1 14 0 0 0 15 16 70 11 CI9 list_type
0 0 1 uI10 notransmit0 0 1 lCCCDCCDI12 finger_index0 0 1 dI12 finger_block1012 0
 CZ3 0 4 T1 0 0 6 20 1 17 17 13 255 6 420 0 1 0 18 0 0 19 0 50 255 7 415 0 20 21
 0 0 +-.156206722270034 -.105816247940693 .1456208752439184 1112002228190214e-31
 .5 .866025403784436 128402957157025e-30 -.866025403784436 .5 30 255 8 419 0 22
 23 0 0 +-.156206722270034 -.106812177155045 .1461958752439182 -1 -4351060930359
645e-45 1284029571570196e-31 29 255 9 653 0 12 24 0 -.161206722270034 -.10482031
8726341 .1450458752439184 19 9 CCCCCCI5 frame230 0 CA5 owner12 0 Z10 190 0 1 19
 0 25 0 V0 16 255 11 396 26 ?27 0 28 29 0 0 1 18 255 12 649 30 31 0 32 9 ?1 81 1
 30 892 33 12 0 0 34 35 36 17 255 31 0 37 38 39 12 40 41 0 42 +18 32 492 34 43 1
2 44 24 ?1 81 1 34 891 33 32 0 0 45 30 46 17 43 0 47 48 49 32 50 51 0 52 +18 44
 164 53 54 32 55 56 ?1 29 24 496 0 32 56 9 -.161206722270034 -.0624998106506522
 .17834714543314 29 56 166 0 44 57 24 -.156206722270034 -.085507952221948 .13389
58752439184 29 57 161 0 55 58 56 -.156206722270034 -.0605079522219479 .177197145
4331405 18 55 159 59 60 44 61 57 ?1 29 58 131 0 61 62 57 -.156206722270034 -.081
8121771550451 .1894971454331405 18 61 129 63 64 55 65 58 ?1 29 62 126 0 65 66 58
 -.156206722270034 -.106812177155045 .1461958752439182 18 65 124 67 68 61 69 62
 ?1 29 66 621 0 70 71 62 -.161206722270034 -.0874998106506521 .1350458752439184
 18 70 563 45 72 73 74 66 ?1 29 71 625 0 69 75 66 -.165206722270034 -.0874998106
506521 .1350458752439184 18 69 565 76 77 65 78 71 ?1 29 75 626 0 78 79 71 -.1652
06722270034 -.0624998106506521 .1783471454331405 18 78 569 80 81 69 82 75 ?1 29
 79 627 0 82 83 75 -.165206722270034 -.0605079522219479 .1771971454331405 18 82
 573 84 85 78 73 79 ?1 29 83 628 0 73 86 79 -.165206722270034 -.085507952221948
 .1338958752439184 18 73 561 87 88 82 70 83 ?1 29 86 778 0 89 90 83 -.1612067222
70034 -.0798203187263409 .1883471454331405 18 89 732 35 91 92 0 86 ?1 29 90 782
 0 74 93 86 -.165206722270034 -.0798203187263409 .1883471454331405 18 74 718 94
 95 70 96 90 ?1 29 93 783 0 96 97 90 -.165206722270034 -.0818121771550451 .18949
71454331405 18 96 730 98 99 74 100 93 ?1 29 97 784 0 100 101 93 -.16520672227003
4 -.106812177155045 .1461958752439182 18 100 726 102 103 96 92 97 ?1 29 101 785
 0 92 0 97 -.165206722270034 -.104820318726341 .1450458752439184 18 92 722 104 1
05 100 89 101 ?1 81 1 104 888 33 92 0 0 80 94 106 17 105 0 107 108 109 92 95 110
 0 40 -15 255 107 753 0 105 111 0 17 108 0 107 99 105 100 39 112 0 113 +17 109 0
 107 105 99 74 114 115 0 116 +17 95 0 117 91 40 74 105 110 0 109 +16 110 700 118
 ?95 112 119 120 0 0 1 17 40 0 117 95 121 92 31 41 0 39 -15 117 737 0 121 122 0
 17 121 0 117 40 91 12 123 119 0 0 -16 41 679 124 ?31 125 126 127 0 0 1 17 39 0
 37 31 113 92 108 112 0 0 -15 37 409 0 128 20 0 17 113 0 37 39 129 100 130 22 0
 0 +16 112 682 131 ?108 132 110 133 0 0 1 81 1 131 907 33 112 0 0 134 135 136 16
 132 688 135 ?99 115 112 137 0 0 1 30 133 776 0 112 120 137 0 +-.165206722270034
 -.105816247940693 .1456208752439184 642014785785143e-31 -.866025403784436 .5 30
 120 777 0 110 0 133 0 +-.165206722270034 -.0923203187263409 .1666965103385295 1
112002228190216e-31 .5 .866025403784439 30 137 775 0 132 133 138 0 +-.1652067222
70034 -.0943121771550451 .1678465103385295 1112002228190216e-31 .5 .866025403784
439 30 138 774 0 115 137 139 0 +-.165206722270034 -.080816247940693 .18892214543
31405 -642014785785143e-31 .866025403784436 -.5 16 115 694 140 ?109 126 132 138
 0 0 1 30 139 773 0 119 138 141 0 +-.161206722270034 -.0923203187263409 .1666965
103385295 1112002228190216e-31 .5 .866025403784439 16 119 674 142 ?123 110 0 139
 0 0 1 30 141 769 0 126 139 127 0 +-.165206722270034 -.0798203187263409 .1883471
454331405 1 4338734978715565e-45 -1284029571570196e-31 16 126 697 143 ?91 41 115
 141 0 0 1 30 127 766 0 41 141 144 0 +-.165206722270034 -.104820318726341 .14504
58752439184 1 4338734978715565e-45 -1284029571570196e-31 30 144 620 0 145 127 14
6 0 +-.165206722270034 -.073007952221948 .1555465103385295 1112002228190216e-31
 .5 .866025403784438 16 145 550 147 ?85 148 125 144 0 0 1 30 146 619 0 148 144 1
49 0 +-.165206722270034 -.0615038814363 .1777721454331405 642014785785134e-31 -.
86602540378444 .5 16 148 553 134 ?49 150 145 146 0 0 1 30 149 618 0 150 146 151
 0 +-.165206722270034 -.0749998106506521 .1566965103385295 1112002228190216e-31
 .5 .866025403784438 16 150 525 152 ?81 153 148 149 0 0 1 30 151 617 0 153 149 1
54 0 +-.165206722270034 -.0865038814363001 .1344708752439182 -642014785785139e-3
1 .866025403784437 -.5 16 153 547 155 ?88 51 150 151 0 0 1 30 154 614 0 125 151
 156 0 +-.161206722270034 -.0749998106506521 .1566965103385295 1112002228190216e
-31 .5 .866025403784438 16 125 556 157 ?52 145 41 154 0 0 1 30 156 612 0 158 154
 159 0 +-.165206722270034 -.0874998106506521 .1350458752439184 1 433873497871556
5e-45 -1284029571570196e-31 16 158 522 160 ?72 161 51 156 0 0 1 30 159 611 0 51
 156 162 0 +-.165206722270034 -.0624998106506521 .1783471454331405 1 43387349787
15565e-45 -1284029571570196e-31 16 51 528 163 ?43 158 153 159 0 0 1 30 162 31 0
 164 159 165 0 +-.156206722270034 -.105816247940693 .1456208752439184 6420147857
85143e-31 -.866025403784436 .5 16 164 29 166 ?129 167 168 162 0 0 1 30 165 36 0
 167 162 169 0 +-.156206722270034 -.0943121771550451 .1678465103385295 111200222
8190216e-31 .5 .866025403784439 16 167 34 170 ?64 171 164 165 0 0 1 30 169 41 0
 171 165 172 0 +-.156206722270034 -.080816247940693 .1889221454331405 -642014785
785143e-31 .866025403784436 -.5 16 171 39 173 ?174 175 167 169 0 0 1 30 172 76 0
 175 169 176 0 +-.156206722270034 -.073007952221948 .1555465103385295 1112002228
190216e-31 .5 .866025403784438 16 175 74 177 ?60 178 171 172 0 0 1 31 255 176 11
6 0 178 172 179 0 +-.156206722270034 -.0836600646884965 .1616965103385295 1 4351
060930359645e-45 -1284029571570196e-31 -1112002228190216e-31 -.5 -.8660254037844
39 .00165 16 178 114 180 ?181 182 175 176 0 0 1 30 179 390 0 161 176 183 0 +-.16
1206722270034 -.105816247940693 .1456208752439184 642014785785143e-31 -.86602540
3784436 .5 16 161 355 184 ?42 185 158 179 0 0 1 30 183 388 0 185 179 186 0 +-.16
1206722270034 -.080816247940693 .1889221454331405 -642014785785143e-31 .86602540
3784436 -.5 16 185 337 187 ?188 168 161 183 0 0 1 31 186 386 0 168 183 189 0 +-.
161206722270034 -.0836600646884965 .1616965103385295 1 4351060930359645e-45 -128
4029571570196e-31 -1112002228190216e-31 -.5 -.866025403784439 .00165 16 168 329
 190 ?191 164 185 186 0 0 1 30 189 416 0 28 186 29 0 +-.156206722270034 -.085507
952221948 .1338958752439184 -1 -4351060930359645e-45 1284029571570196e-31 16 28
 395 192 ?193 11 22 189 0 0 1 30 29 417 0 11 189 23 0 +-.156206722270034 -.06050
79522219479 .1771971454331405 -1 -4351060930359645e-45 1284029571570196e-31 30 2
3 418 0 182 29 8 0 +-.156206722270034 -.0818121771550451 .1894971454331405 -1 -4
351060930359645e-45 1284029571570196e-31 16 182 397 194 ?195 22 178 23 0 0 1 81
 1 194 917 33 182 0 0 196 184 197 17 195 0 198 103 64 96 199 182 0 0 +16 22 398
 196 ?113 28 182 8 0 0 1 81 1 196 916 33 22 0 0 26 194 200 80 7 CCCCCDI12 legal_
owners0 17 1 lCZ1 33 201 202 9000 0 0 0 0 3 6 0 0 0 FFTFTFTTFFFFFFFFF1 81 1 26 9
15 33 11 0 0 192 196 203 82 255 3 200 31 224 1 81 1 192 914 33 28 0 0 142 26 204
 82 3 203 31 223 1 81 1 142 913 33 119 0 0 157 192 205 82 3 204 31 222 1 81 1 15
7 912 33 125 0 0 118 142 206 82 3 205 31 221 1 81 1 118 911 33 110 0 0 152 157 2
07 82 3 206 31 220 1 81 1 152 910 33 150 0 0 140 118 208 82 3 207 31 219 1 81 1
 140 909 33 115 0 0 135 152 209 82 3 208 31 218 1 81 1 135 908 33 132 0 0 131 14
0 210 82 3 209 31 217 1 82 3 210 31 216 1 79 255 9 202 BTI/DetId15 198 407 0 130
 211 0 17 103 0 198 130 195 100 99 132 0 108 -17 64 0 198 195 130 61 68 167 0 21
2 +17 199 0 47 174 114 61 195 182 0 0 -15 47 405 0 199 213 0 17 174 0 47 27 199
 55 212 171 0 0 +17 114 0 47 199 116 96 109 115 0 195 -17 116 0 47 114 48 74 91
 126 0 0 -17 48 0 47 116 43 89 188 185 0 123 -17 91 0 117 121 95 89 116 126 0 48
 +17 188 0 214 215 123 32 48 185 0 0 +17 123 0 214 188 42 89 121 119 0 0 +15 214
 660 0 123 18 0 17 42 0 214 123 215 12 38 161 0 121 +17 215 0 214 42 188 70 52 1
25 0 0 -17 38 0 37 216 31 70 42 161 0 215 -17 216 0 37 88 38 69 72 158 0 0 -17 8
8 0 37 128 216 73 217 153 0 218 +17 72 0 219 52 77 70 216 158 0 38 +15 219 584 0
 52 220 0 17 52 0 219 50 72 32 215 125 0 188 +17 77 0 219 72 50 69 81 150 0 217
 -17 50 0 219 77 52 78 43 51 0 49 -17 81 0 221 222 217 78 77 150 0 50 +17 217 0
 221 81 218 69 88 153 0 216 -15 221 596 0 217 223 0 17 218 0 221 217 222 73 85 1
45 0 193 -17 222 0 221 218 81 82 49 148 0 27 -17 85 0 224 225 193 82 218 145 0 2
22 +17 193 0 224 85 226 73 128 28 0 0 +15 224 403 0 225 227 0 17 226 0 224 193 2
25 44 60 175 0 0 -17 128 0 37 129 88 44 193 28 0 226 -17 129 0 37 113 128 65 54
 164 0 0 +17 54 0 228 60 68 44 129 164 0 128 -15 228 6 0 212 229 230 17 60 0 228
 212 54 55 226 175 0 225 +17 68 0 228 54 212 65 64 167 0 130 -17 212 0 228 68 60
 61 174 171 0 199 -17 130 0 198 64 103 65 113 22 0 129 -17 225 0 224 226 85 55 2
7 11 0 174 -17 27 0 47 49 174 82 225 11 0 0 +17 49 0 47 43 27 78 222 148 0 0 +14
 255 229 1 231 ?220 232 228 6 233 +0 0 220 232 25 15 230 23 0 234 229 0 17 234 0
 230 234 234 0 181 178 0 0 -17 181 0 235 181 181 0 234 178 0 0 +15 235 399 0 181
 232 236 14 232 400 237 ?229 211 235 6 238 -0 0 229 211 25 15 236 401 0 239 232
 0 17 239 0 236 239 239 0 191 168 0 0 -17 191 0 240 191 191 0 239 168 0 0 +15 24
0 328 0 191 18 214 14 18 305 241 ?213 0 240 6 242 -0 0 213 0 25 81 1 241 935 243
 18 244 0 0 245 246 14 213 406 245 ?227 18 47 6 247 -0 0 227 18 25 50 242 385 0
 18 233 238 0 +-.161206722270034 -.0825342316635769 .162346510338529 1 435106093
0359645e-45 -1284029571570196e-31 4351060930359645e-45 -1 47594791488272e-46 13
 25 191 0 0 0 0 0 0 10 18 50 233 3 0 229 248 242 0 +-.156206722270034 -.08253423
16635769 .162346510338529 1 4351060930359645e-45 -1284029571570196e-31 435106093
0359645e-45 -1 47594791488272e-46 51 255 238 411 0 232 242 249 0 +-.156206722270
034 -.0836600646884965 .1616965103385295 -1 -4351060930359645e-45 12840295715701
96e-31 .00165 -4351060930359645e-45 1 -47594791488272e-46 50 249 412 0 227 238 2
47 0 +-.156206722270034 -.073007952221948 .1555465103385295 -642014785785137e-31
 .866025403784439 -.5 741334818793463e-31 .5 .866025403784439 14 227 404 250 ?20
 213 224 6 249 +0 0 20 213 25 50 247 413 0 213 249 21 0 +-.156206722270034 -.080
816247940693 .1889221454331405 -1112002228190214e-31 -.5 -.866025403784436 -1284
02957157025e-30 .866025403784436 -.5 50 21 414 0 211 247 7 0 +-.156206722270034
 -.0943121771550451 .1678465103385295 -642014785785137e-31 .866025403784439 -.5
 741334818793463e-31 .5 .866025403784439 14 211 408 251 ?232 20 198 6 21 -0 0 23
2 20 25 81 1 251 939 243 211 252 0 253 237 254 14 20 410 253 ?211 227 37 6 7 -0
 0 211 227 25 81 1 253 938 243 20 255 0 250 251 256 80 1 243 0 257 8001 0 0 0 0
 3 5 0 0 0 FFFFTFTFFFFFFFFFF2 81 1 255 926 33 20 0 253 258 259 260 81 1 250 937
 243 227 261 0 245 253 262 83 255 3 256 .0509803921568627 .2705882352941175 .670
588235294118 81 1 261 928 33 227 0 250 259 252 263 81 1 245 936 243 213 259 0 24
1 250 264 83 3 262 .0509803921568627 .2705882352941175 .670588235294118 81 1 259
 927 33 213 0 245 255 261 265 83 3 264 .0509803921568627 .2705882352941175 .6705
88235294118 82 3 265 31 84 2 81 1 252 929 33 211 0 251 261 244 266 82 3 263 31 8
5 2 81 1 244 930 33 18 0 241 252 267 268 82 3 266 31 86 2 81 1 267 931 33 1 0 26
9 244 0 270 82 3 268 31 87 2 81 1 269 932 271 1 267 272 0 0 273 82 3 270 31 3 3
 80 1 271 274 275 8038 0 0 0 0 0 0 0 0 0 TTTTTTTTTTTTTFTFT10 81 1 272 933 274 1
 269 14 0 0 276 98 255 22 273 77 105 100 100 108 101 32 73 110 115 101 114 116 3
2 40 77 105 114 114 111 114 41 80 1 274 277 278 8017 0 0 0 0 0 0 0 0 0 TTTTTTTTT
TTTTFTFT3 81 1 14 934 279 1 272 2 0 0 280 84 255 22 276 Middle Insert (Mirror)80
 1 279 243 281 8040 0 0 0 0 3 5 0 0 0 TTTFFFFFFFFFFFFFF2 83 3 280 .0509803921568
627 .2705882352941175 .670588235294118 79 17 281 SDL/TYSA_COLOUR_279 13 278 SDL/
TYSA_NAME79 14 275 SDL/TYSA_UNAME81 1 258 925 33 122 0 282 283 255 284 82 3 260
 31 83 2 14 122 734 282 ?111 223 117 6 285 -0 0 111 223 25 81 1 282 944 243 122
 258 0 286 287 288 81 1 283 924 33 220 0 289 290 258 291 82 3 284 31 82 2 14 220
 581 289 ?223 229 219 6 248 +0 0 223 229 25 81 1 289 942 243 220 283 0 231 286 2
92 81 1 290 923 33 111 0 287 293 283 294 82 3 291 31 81 2 14 111 750 287 ?0 122
 107 6 295 -0 0 0 122 25 81 1 287 945 243 111 290 0 282 0 296 81 1 293 922 33 22
3 0 286 297 290 298 82 3 294 31 80 2 14 223 593 286 ?122 220 221 6 299 -0 0 122
 220 25 81 1 286 943 243 223 293 0 289 282 300 81 1 297 921 33 229 0 231 301 293
 302 82 3 298 31 79 2 81 1 231 941 243 229 297 0 237 289 303 81 1 301 920 33 232
 0 237 187 297 304 82 3 302 31 78 2 81 1 237 940 243 232 301 0 251 231 305 81 1
 187 919 33 185 0 0 184 301 306 82 3 304 31 77 2 81 1 184 918 33 161 0 0 194 187
 307 82 3 306 31 227 1 82 3 307 31 226 1 83 3 305 .0509803921568627 .27058823529
41175 .670588235294118 83 3 303 .0509803921568627 .2705882352941175 .67058823529
4118 83 3 300 .0509803921568627 .2705882352941175 .670588235294118 50 299 608 0
 223 285 248 0 +-.165206722270034 -.0825342316635769 .162346510338529 1 43510609
30359645e-45 -1284029571570196e-31 4351060930359645e-45 -1 47594791488272e-46 50
 285 760 0 122 295 299 0 +-.165206722270034 -.0923203187263409 .1666965103385295
 642014785785136e-31 -.866025403784439 .5 -741334818793463e-31 -.5 -.86602540378
4439 50 248 605 0 220 299 233 0 +-.165206722270034 -.0749998106506521 .156696510
3385295 642014785785136e-31 -.866025403784438 .5 -741334818793463e-31 -.5 -.8660
25403784438 50 295 765 0 111 0 285 0 +-.165206722270034 -.0825342316635769 .1623
46510338529 1 4351060930359645e-45 -1284029571570196e-31 4351060930359645e-45 -1
 47594791488272e-46 83 3 296 .0509803921568627 .2705882352941175 .67058823529411
8 83 3 292 .0509803921568627 .2705882352941175 .670588235294118 83 3 288 .050980
3921568627 .2705882352941175 .670588235294118 79 15 257 SDL/TYSA_COLOUR83 3 254
 .0509803921568627 .2705882352941175 .670588235294118 83 3 246 .0509803921568627
 .2705882352941175 .670588235294118 17 99 0 107 109 108 96 103 132 0 114 +82 3 1
97 31 225 1 81 1 190 894 33 168 0 0 35 180 308 81 1 35 893 33 89 0 0 30 190 309
 81 1 180 895 33 178 0 0 190 166 310 82 3 308 31 202 1 81 1 166 896 33 164 0 0 1
80 173 311 82 3 310 31 203 1 81 1 173 897 33 171 0 0 166 177 312 82 3 311 31 204
 1 81 1 177 898 33 175 0 0 173 170 313 82 3 312 31 205 1 81 1 170 899 33 167 0 0
 177 160 314 82 3 313 31 206 1 81 1 160 900 33 158 0 0 170 163 315 82 3 314 31 2
07 1 81 1 163 901 33 51 0 0 160 124 316 82 3 315 31 208 1 81 1 124 902 33 41 0 0
 163 143 317 82 3 316 31 209 1 81 1 143 903 33 126 0 0 124 155 318 82 3 317 31 2
10 1 81 1 155 904 33 153 0 0 143 147 319 82 3 318 31 211 1 81 1 147 905 33 145 0
 0 155 134 320 82 3 319 31 212 1 81 1 134 906 33 148 0 0 147 131 321 82 3 320 31
 213 1 82 3 321 31 214 1 82 3 309 31 133 0 82 3 136 31 215 1 81 1 80 887 33 78 0
 0 76 104 322 81 1 94 889 33 74 0 0 104 45 323 82 3 106 31 128 0 81 1 45 890 33
 70 0 0 94 34 324 82 3 323 31 129 0 82 3 324 31 130 0 81 1 76 886 33 69 0 0 98 8
0 325 82 3 322 31 127 0 81 1 98 885 33 96 0 0 102 76 326 82 3 325 31 126 0 81 1
 102 884 33 100 0 0 84 98 327 82 3 326 31 125 0 81 1 84 883 33 82 0 0 87 102 328
 82 3 327 31 124 0 81 1 87 882 33 73 0 0 63 84 329 82 3 328 31 123 0 81 1 63 881
 33 61 0 0 67 87 330 82 3 329 31 122 0 81 1 67 880 33 65 0 0 59 63 331 82 3 330
 31 121 0 81 1 59 879 33 55 0 0 53 67 332 82 3 331 31 120 0 81 1 53 878 33 44 0
 0 0 59 333 82 3 332 31 119 0 82 3 333 31 118 0 82 3 46 31 131 0 82 3 36 31 132
 0 19 19 421 0 1 0 10 6 0 S0 74 4 CI16 index_map_offset0 0 1 dCCZ20 17 6 0 0 267
 269 272 14 287 2 0 0 0 0 0 0 0 0 0 0 0 0 0 0 80 2 13 334 335 8004 0 0 0 0 3 5 0
 0 0 FFTFFFFFFFFFFFFFF2 3 83 1 15 1301 84 6 16 kg/m^379 16 335 SDL/TYSA_DENSITY1
 0 
